<svg version="1.1" id="Layer_1" xmlns="http://www.w3.org/2000/svg" xmlns:xlink="http://www.w3.org/1999/xlink" x="0px" y="0px"
	 width="100%" viewBox="0 0 1000 1000" enable-background="new 0 0 1000 1000" xml:space="preserve">
<path fill="#000000" opacity="1.000000" stroke="none" 
	d="
M630.000000,1001.000000 
	C420.000000,1001.000000 210.500000,1001.000000 1.000000,1001.000000 
	C1.000000,667.666687 1.000000,334.333344 1.000000,1.000000 
	C334.333344,1.000000 667.666687,1.000000 1001.000000,1.000000 
	C1001.000000,334.333344 1001.000000,667.666687 1001.000000,1001.000000 
	C877.500000,1001.000000 754.000000,1001.000000 630.000000,1001.000000 
M257.590698,678.218384 
	C246.996841,677.439819 237.210419,673.826660 228.677505,667.869995 
	C222.224777,663.365479 216.880569,657.273010 210.983795,651.175110 
	C203.234833,639.570679 198.594147,626.686218 195.306122,612.587280 
	C174.813156,616.863525 154.399887,621.123169 133.679794,625.446838 
	C139.934479,655.519226 152.226990,681.618286 175.265289,702.730652 
	C175.729309,702.894409 176.311859,702.931885 176.640137,703.240112 
	C187.019379,712.985229 199.419052,719.388733 212.429596,724.712097 
	C215.811935,726.096008 219.468231,726.810303 223.688354,728.185730 
	C237.027054,733.083618 251.032288,733.839355 265.925995,734.971375 
	C278.950439,733.925476 291.974854,732.879578 305.767365,731.684937 
	C307.198853,731.426758 308.652832,731.256592 310.058472,730.897278 
	C337.870636,723.787720 362.764587,711.797485 381.515015,689.074951 
	C390.463074,678.231201 397.182709,666.256165 402.043365,653.141479 
	C409.739227,632.377075 410.654205,610.796387 409.970337,588.072693 
	C409.925079,570.715027 409.879852,553.357422 409.971222,535.071167 
	C409.924774,514.046936 409.878326,493.022675 409.968475,471.070129 
	C409.922913,448.376373 409.877350,425.682617 409.967743,402.061707 
	C409.967743,357.154877 409.967743,312.248047 409.967743,267.168579 
	C400.585724,267.168579 391.790161,267.168579 382.066254,267.035645 
	C315.498047,267.035645 248.929810,267.035645 182.325409,267.035645 
	C182.325409,285.950653 182.325409,304.331940 182.325409,323.006897 
	C184.467453,323.006897 186.279266,323.007050 188.091080,323.006866 
	C217.408478,323.003906 246.725891,323.021301 276.043274,322.991333 
	C299.027557,322.967834 322.011749,322.885773 345.721130,323.338013 
	C345.812439,325.157654 345.982330,326.977264 345.983398,328.796967 
	C346.002075,360.070892 345.980377,391.344818 346.009247,422.618713 
	C346.028442,443.409149 346.113403,464.199524 346.028473,485.919830 
	C346.075317,507.945923 346.122162,529.971985 346.029449,552.926453 
	C346.020294,565.375610 346.372833,577.838806 345.891388,590.269653 
	C345.480988,600.865540 344.111328,611.424377 343.024902,622.801331 
	C342.676392,624.380981 342.366577,625.970398 341.973480,627.538879 
	C337.241272,646.422363 327.230225,661.442322 309.284332,671.272827 
	C305.230530,672.847778 301.239960,674.616821 297.111145,675.961426 
	C284.345306,680.118835 271.146301,678.968628 257.590698,678.218384 
M596.072937,267.029358 
	C576.488770,267.029358 556.904602,267.029358 537.166199,267.029358 
	C537.166199,292.765228 537.166199,317.884338 537.028015,343.931335 
	C537.074463,366.621063 537.120911,389.310822 537.028992,412.928802 
	C537.074585,436.285492 537.120178,459.642212 537.028442,483.927490 
	C537.074646,505.954803 537.120850,527.982117 537.029663,550.936646 
	C537.075439,584.957458 537.121277,618.978271 537.029785,653.927612 
	C537.076050,676.956421 537.122253,699.985168 537.033081,723.879333 
	C536.394714,727.379395 538.764404,727.011719 540.968140,727.009399 
	C560.280090,726.989136 579.591980,727.001709 598.903931,726.980896 
	C599.843079,726.979858 600.781982,726.758118 601.832336,726.625000 
	C601.832336,695.891113 601.832336,665.452820 601.969482,634.084290 
	C601.979736,618.097595 601.936523,602.110474 602.066833,586.124756 
	C602.083496,584.090515 602.431763,581.613464 603.608704,580.111084 
	C608.767822,573.525940 614.331238,567.259338 619.667175,560.810364 
	C626.836914,552.145081 633.906494,543.397034 641.066711,534.723877 
	C648.123169,526.176331 655.239197,517.677979 662.283813,509.212463 
	C670.897217,523.278809 679.394470,537.155457 688.185730,551.677795 
	C688.866516,552.975281 689.479248,554.314148 690.238220,555.564148 
	C705.466309,580.644104 720.759094,605.684937 735.940796,630.792908 
	C754.583191,661.624207 773.224304,692.457397 791.585632,723.455872 
	C793.367554,726.464233 795.062500,727.057434 798.066528,727.045532 
	C819.721375,726.959534 841.376770,727.004456 863.031982,726.988953 
	C864.605225,726.987854 866.178284,726.837585 868.657166,726.710083 
	C822.184631,650.321960 776.131348,574.622864 729.786804,498.289825 
	C722.179260,485.772003 714.571777,473.254211 706.928711,460.677979 
	C759.045410,396.355591 811.074768,332.141022 863.720215,267.166107 
	C848.470337,267.166107 834.234558,267.166107 819.070374,267.029541 
	C809.907532,267.019867 800.734558,267.257111 791.586792,266.880951 
	C787.841797,266.726959 785.616882,268.433685 783.627197,270.900452 
	C770.049377,287.733765 756.621521,304.688629 742.976440,321.466949 
	C729.006897,338.644287 714.747314,355.585907 700.793396,372.775757 
	C685.929504,391.086426 671.065552,409.404114 656.587769,428.019104 
	C642.040222,446.723785 628.003967,465.825592 613.660889,484.690430 
	C610.371277,489.017151 606.743164,493.086548 603.270874,497.274353 
	C602.791321,497.087250 602.311829,496.900146 601.832275,496.713043 
	C601.832275,487.811890 601.832275,478.910736 601.968689,469.078735 
	C601.923767,446.385651 601.878845,423.692535 601.970398,400.070984 
	C601.924744,377.380829 601.879028,354.690643 601.969666,331.071747 
	C601.969666,309.789368 601.969666,288.506989 601.969666,267.165955 
	C599.972595,267.165955 598.487305,267.165955 596.072937,267.029358 
z"/>
<path fill="#2B2FF0" opacity="1.000000" stroke="none" 
	d="
M601.832275,470.009583 
	C601.832275,478.910736 601.832275,487.811890 601.832275,496.713043 
	C602.311829,496.900146 602.791321,497.087250 603.270874,497.274353 
	C606.743164,493.086548 610.371277,489.017151 613.660889,484.690430 
	C628.003967,465.825592 642.040222,446.723785 656.587769,428.019104 
	C671.065552,409.404114 685.929504,391.086426 700.793396,372.775757 
	C714.747314,355.585907 729.006897,338.644287 742.976440,321.466949 
	C756.621521,304.688629 770.049377,287.733765 783.627197,270.900452 
	C785.616882,268.433685 787.841797,266.726959 791.586792,266.880951 
	C800.734558,267.257111 809.907532,267.019867 819.444824,267.433411 
	C818.383118,270.455780 817.217590,273.272095 815.470093,275.663086 
	C790.016418,310.489044 764.454895,345.236084 738.979309,380.045990 
	C703.471191,428.564545 668.047241,477.144775 632.523376,525.651794 
	C604.772949,563.544250 576.967834,601.397034 549.068115,639.179626 
	C545.467041,644.056274 541.151550,648.405518 537.167053,652.999084 
	C537.121277,618.978271 537.075439,584.957458 537.474976,550.465698 
	C540.244019,548.384827 543.197998,547.243103 544.794739,545.093201 
	C562.213928,521.640015 579.394348,498.009583 596.738342,474.500153 
	C598.051819,472.719666 600.116699,471.493469 601.832275,470.009583 
z"/>
<path fill="#2531F0" opacity="1.000000" stroke="none" 
	d="
M537.098389,653.463379 
	C541.151550,648.405518 545.467041,644.056274 549.068115,639.179626 
	C576.967834,601.397034 604.772949,563.544250 632.523376,525.651794 
	C668.047241,477.144775 703.471191,428.564545 738.979309,380.045990 
	C764.454895,345.236084 790.016418,310.489044 815.470093,275.663086 
	C817.217590,273.272095 818.383118,270.455780 819.909058,267.501709 
	C834.234558,267.166107 848.470337,267.166107 863.720215,267.166107 
	C811.074768,332.141022 759.045410,396.355591 706.928711,460.677979 
	C714.571777,473.254211 722.179260,485.772003 729.623718,498.750580 
	C728.953857,499.629333 728.335266,499.964722 727.956421,500.477325 
	C716.540466,515.923706 705.207825,531.432434 693.673401,546.789551 
	C692.299316,548.619141 689.845215,549.637634 687.891724,551.032104 
	C679.394470,537.155457 670.897217,523.278809 662.283813,509.212463 
	C655.239197,517.677979 648.123169,526.176331 641.066711,534.723877 
	C633.906494,543.397034 626.836914,552.145081 619.667175,560.810364 
	C614.331238,567.259338 608.767822,573.525940 603.608704,580.111084 
	C602.431763,581.613464 602.083496,584.090515 602.066833,586.124756 
	C601.936523,602.110474 601.979736,618.097595 601.589478,634.663513 
	C599.367065,637.757202 597.523193,640.270569 595.682373,642.786255 
	C582.405090,660.930176 569.115540,679.065125 555.857300,697.222961 
	C549.596619,705.797302 543.396179,714.415588 537.168518,723.013977 
	C537.122253,699.985168 537.076050,676.956421 537.098389,653.463379 
z"/>
<path fill="#1636F1" opacity="1.000000" stroke="none" 
	d="
M688.038696,551.354980 
	C689.845215,549.637634 692.299316,548.619141 693.673401,546.789551 
	C705.207825,531.432434 716.540466,515.923706 727.956421,500.477325 
	C728.335266,499.964722 728.953857,499.629333 729.769409,499.067566 
	C776.131348,574.622864 822.184631,650.321960 868.657166,726.710083 
	C866.178284,726.837585 864.605225,726.987854 863.031982,726.988953 
	C841.376770,727.004456 819.721375,726.959534 798.066528,727.045532 
	C795.062500,727.057434 793.367554,726.464233 791.585632,723.455872 
	C773.224304,692.457397 754.583191,661.624207 735.940796,630.792908 
	C720.759094,605.684937 705.466309,580.644104 690.238220,555.564148 
	C689.479248,554.314148 688.866516,552.975281 688.038696,551.354980 
z"/>
<path fill="#601DEC" opacity="1.000000" stroke="none" 
	d="
M346.168945,484.989929 
	C346.113403,464.199524 346.028442,443.409149 346.009247,422.618713 
	C345.980377,391.344818 346.002075,360.070892 345.983398,328.796967 
	C345.982330,326.977264 345.812439,325.157654 345.448242,322.752167 
	C346.228851,320.285522 347.105957,318.276398 348.365753,316.545837 
	C354.344757,308.332550 360.589874,300.308899 366.428253,291.998566 
	C372.146271,283.859528 377.487793,275.455994 382.994568,267.168579 
	C391.790161,267.168579 400.585724,267.168579 409.967743,267.168579 
	C409.967743,312.248047 409.967743,357.154877 409.555969,402.572083 
	C407.550598,404.442566 405.622681,405.556641 404.413422,407.199615 
	C386.250458,431.876953 368.195709,456.633911 350.056580,481.328827 
	C349.020172,482.739807 347.476501,483.778137 346.168945,484.989929 
z"/>
<path fill="#7716EB" opacity="1.000000" stroke="none" 
	d="
M382.530396,267.102112 
	C377.487793,275.455994 372.146271,283.859528 366.428253,291.998566 
	C360.589874,300.308899 354.344757,308.332550 348.365753,316.545837 
	C347.105957,318.276398 346.228851,320.285522 345.085693,322.498016 
	C322.011749,322.885773 299.027557,322.967834 276.043274,322.991333 
	C246.725891,323.021301 217.408478,323.003906 188.091080,323.006866 
	C186.279266,323.007050 184.467453,323.006897 182.325409,323.006897 
	C182.325409,304.331940 182.325409,285.950653 182.325409,267.035645 
	C248.929810,267.035645 315.498047,267.035645 382.530396,267.102112 
z"/>
<path fill="#4626EE" opacity="1.000000" stroke="none" 
	d="
M309.998688,671.167725 
	C327.230225,661.442322 337.241272,646.422363 341.973480,627.538879 
	C342.366577,625.970398 342.676392,624.380981 343.442413,622.357178 
	C345.477264,620.608093 347.466400,619.576416 348.656372,617.957458 
	C368.107056,591.494263 387.447998,564.950439 406.862915,538.460938 
	C407.600250,537.454956 408.832825,536.811951 409.834625,535.999756 
	C409.879852,553.357422 409.925079,570.715027 409.610443,588.681335 
	C408.982819,589.486572 408.645386,589.631775 408.457214,589.887024 
	C374.274963,636.262024 340.099884,682.642334 305.962036,729.049988 
	C305.406433,729.805298 305.309998,730.898315 304.999298,731.833740 
	C291.974854,732.879578 278.950439,733.925476 265.602264,734.611267 
	C266.988220,732.444763 268.906769,730.792786 270.374634,728.807556 
	C282.640930,712.217346 294.889069,695.612488 306.953674,678.875854 
	C308.519562,676.703552 309.010071,673.756104 309.998688,671.167725 
z"/>
<path fill="#3F28EE" opacity="1.000000" stroke="none" 
	d="
M601.833313,332.000488 
	C601.879028,354.690643 601.924744,377.380829 601.586060,400.637817 
	C599.413025,402.882935 597.314026,404.332550 595.882751,406.274292 
	C578.459656,429.911713 561.178284,453.653687 543.715027,477.261200 
	C542.028503,479.541107 539.372009,481.103455 537.165771,482.998901 
	C537.120178,459.642212 537.074585,436.285492 537.444763,412.421875 
	C540.064270,410.036285 542.722595,408.494232 544.401611,406.226990 
	C561.770081,382.773743 578.941833,359.174866 596.316101,335.725983 
	C597.561951,334.044617 599.967163,333.222260 601.833313,332.000488 
z"/>
<path fill="#5521ED" opacity="1.000000" stroke="none" 
	d="
M346.098694,485.454895 
	C347.476501,483.778137 349.020172,482.739807 350.056580,481.328827 
	C368.195709,456.633911 386.250458,431.876953 404.413422,407.199615 
	C405.622681,405.556641 407.550598,404.442566 409.487976,403.035675 
	C409.877350,425.682617 409.922913,448.376373 409.589233,471.645325 
	C407.986847,473.538849 406.622131,474.752838 405.561584,476.191101 
	C387.793091,500.287781 370.110413,524.448120 352.223328,548.456177 
	C350.937286,550.182251 348.220551,550.842346 346.169006,551.998108 
	C346.122162,529.971985 346.075317,507.945923 346.098694,485.454895 
z"/>
<path fill="#372BEF" opacity="1.000000" stroke="none" 
	d="
M537.097107,483.463196 
	C539.372009,481.103455 542.028503,479.541107 543.715027,477.261200 
	C561.178284,453.653687 578.459656,429.911713 595.882751,406.274292 
	C597.314026,404.332550 599.413025,402.882935 601.517822,401.102051 
	C601.878845,423.692535 601.923767,446.385651 601.900513,469.544189 
	C600.116699,471.493469 598.051819,472.719666 596.738342,474.500153 
	C579.394348,498.009583 562.213928,521.640015 544.794739,545.093201 
	C543.197998,547.243103 540.244019,548.384827 537.543701,550.002075 
	C537.120850,527.982117 537.074646,505.954803 537.097107,483.463196 
z"/>
<path fill="#3F28EE" opacity="1.000000" stroke="none" 
	d="
M305.383331,731.759338 
	C305.309998,730.898315 305.406433,729.805298 305.962036,729.049988 
	C340.099884,682.642334 374.274963,636.262024 408.457214,589.887024 
	C408.645386,589.631775 408.982819,589.486572 409.542358,589.145752 
	C410.654205,610.796387 409.739227,632.377075 402.043365,653.141479 
	C397.182709,666.256165 390.463074,678.231201 381.515015,689.074951 
	C362.764587,711.797485 337.870636,723.787720 310.058472,730.897278 
	C308.652832,731.256592 307.198853,731.426758 305.383331,731.759338 
z"/>
<path fill="#4626EE" opacity="1.000000" stroke="none" 
	d="
M601.901489,331.536133 
	C599.967163,333.222260 597.561951,334.044617 596.316101,335.725983 
	C578.941833,359.174866 561.770081,382.773743 544.401611,406.226990 
	C542.722595,408.494232 540.064270,410.036285 537.513916,411.957764 
	C537.120911,389.310822 537.074463,366.621063 537.413330,343.535828 
	C539.753723,342.026581 542.329956,341.378204 543.567383,339.726776 
	C555.319702,324.042297 566.839233,308.183441 578.437256,292.383240 
	C584.613770,283.968872 590.812988,275.571167 597.001953,267.165955 
	C598.487305,267.165955 599.972595,267.165955 601.969666,267.165955 
	C601.969666,288.506989 601.969666,309.789368 601.901489,331.536133 
z"/>
<path fill="#4C24ED" opacity="1.000000" stroke="none" 
	d="
M346.099243,552.462280 
	C348.220551,550.842346 350.937286,550.182251 352.223328,548.456177 
	C370.110413,524.448120 387.793091,500.287781 405.561584,476.191101 
	C406.622131,474.752838 407.986847,473.538849 409.520935,472.109467 
	C409.878326,493.022675 409.924774,514.046936 409.902924,535.535461 
	C408.832825,536.811951 407.600250,537.454956 406.862915,538.460938 
	C387.447998,564.950439 368.107056,591.494263 348.656372,617.957458 
	C347.466400,619.576416 345.477264,620.608093 343.512970,621.956299 
	C344.111328,611.424377 345.480988,600.865540 345.891388,590.269653 
	C346.372833,577.838806 346.020294,565.375610 346.099243,552.462280 
z"/>
<path fill="#601DEC" opacity="1.000000" stroke="none" 
	d="
M174.947174,702.126221 
	C152.226990,681.618286 139.934479,655.519226 133.679794,625.446838 
	C154.399887,621.123169 174.813156,616.863525 195.306122,612.587280 
	C198.594147,626.686218 203.234833,639.570679 210.915283,651.868164 
	C205.269012,660.200317 199.666718,667.821594 194.119949,675.483093 
	C187.703522,684.345703 181.335953,693.243652 174.947174,702.126221 
z"/>
<path fill="#5521ED" opacity="1.000000" stroke="none" 
	d="
M175.106232,702.428467 
	C181.335953,693.243652 187.703522,684.345703 194.119949,675.483093 
	C199.666718,667.821594 205.269012,660.200317 210.944916,652.224243 
	C216.880569,657.273010 222.224777,663.365479 228.677505,667.869995 
	C237.210419,673.826660 246.996841,677.439819 257.717896,678.890747 
	C253.632050,685.496338 249.462189,691.460999 245.196228,697.356079 
	C237.828506,707.537537 230.401108,717.675781 222.998718,727.832153 
	C219.468231,726.810303 215.811935,726.096008 212.429596,724.712097 
	C199.419052,719.388733 187.019379,712.985229 176.640137,703.240112 
	C176.311859,702.931885 175.729309,702.894409 175.106232,702.428467 
z"/>
<path fill="#1636F1" opacity="1.000000" stroke="none" 
	d="
M537.100830,723.446655 
	C543.396179,714.415588 549.596619,705.797302 555.857300,697.222961 
	C569.115540,679.065125 582.405090,660.930176 595.682373,642.786255 
	C597.523193,640.270569 599.367065,637.757202 601.520935,635.128662 
	C601.832336,665.452820 601.832336,695.891113 601.832336,726.625000 
	C600.781982,726.758118 599.843079,726.979858 598.903931,726.980896 
	C579.591980,727.001709 560.280090,726.989136 540.968140,727.009399 
	C538.764404,727.011719 536.394714,727.379395 537.100830,723.446655 
z"/>
<path fill="#4C24ED" opacity="1.000000" stroke="none" 
	d="
M223.343536,728.008911 
	C230.401108,717.675781 237.828506,707.537537 245.196228,697.356079 
	C249.462189,691.460999 253.632050,685.496338 257.943604,679.225098 
	C271.146301,678.968628 284.345306,680.118835 297.111145,675.961426 
	C301.239960,674.616821 305.230530,672.847778 309.641510,671.220276 
	C309.010071,673.756104 308.519562,676.703552 306.953674,678.875854 
	C294.889069,695.612488 282.640930,712.217346 270.374634,728.807556 
	C268.906769,730.792786 266.988220,732.444763 265.138855,734.542114 
	C251.032288,733.839355 237.027054,733.083618 223.343536,728.008911 
z"/>
<path fill="#4C24ED" opacity="1.000000" stroke="none" 
	d="
M596.537476,267.097656 
	C590.812988,275.571167 584.613770,283.968872 578.437256,292.383240 
	C566.839233,308.183441 555.319702,324.042297 543.567383,339.726776 
	C542.329956,341.378204 539.753723,342.026581 537.482422,343.071899 
	C537.166199,317.884338 537.166199,292.765228 537.166199,267.029358 
	C556.904602,267.029358 576.488770,267.029358 596.537476,267.097656 
z"/>
</svg>